<svg width="367" height="187" viewBox="0 0 367 187" fill="none" xmlns="http://www.w3.org/2000/svg">
<mask id="mask0_4_3" style="mask-type:luminance" maskUnits="userSpaceOnUse" x="0" y="0" width="367" height="187">
<path d="M366.658 0H0.341984V187H366.658V0Z" fill="white"/>
</mask>
<g mask="url(#mask0_4_3)">
<path d="M102.848 115.671C107.7 115.203 112.648 115.039 117.443 115.367C117.443 115.367 125.91 103.086 126.713 99.4521C126.713 99.4521 100.907 102.344 87.7664 107.607C87.7664 107.607 71.8863 117.212 65.2339 124.48C65.2339 124.48 76.0212 120.34 89.9807 117.588C88.2286 119.092 86.3031 120.841 84.7242 122.519C77.0609 123.854 69.0126 125.96 62.0906 129.267C62.0906 129.267 41.0455 150.545 29.1269 178.658C29.1269 178.658 42.8313 139.908 98.4765 142.381C98.4765 142.381 110.833 122.793 114.049 120.259C114.049 120.259 107.252 120.046 97.8797 120.842C99.1843 119.324 100.941 117.396 102.843 115.671H102.848Z" fill="#004098"/>
<path d="M31.4476 56.3943C31.3273 57.1943 31.2599 58.0039 31.2503 58.8137C30.5908 58.6112 29.8591 58.4137 29.2285 58.698C29.0553 58.7751 28.8964 58.8859 28.7376 59.0016C27.1924 60.1054 25.5557 61.3777 25.084 63.2188C25.0599 62.4862 25.0407 61.7488 25.0166 61.0162C25.0022 60.4716 24.9829 59.927 24.8626 59.3968C24.7711 58.9968 24.6171 58.6112 24.5497 58.2064C24.3957 57.2714 24.7038 56.3267 25.0985 55.464C25.4931 54.6014 25.9649 53.7676 26.1767 52.8471C26.2681 52.447 26.3115 52.0277 26.504 51.6662C26.7784 51.1554 27.4716 50.7746 27.9818 51.4446C28.0925 51.5072 28.184 51.5987 28.2947 51.6566C28.4921 51.7626 28.728 51.7578 28.9542 51.753C32.9976 51.6662 37.0555 52.1192 40.9834 53.1025C40.2036 54.0181 38.9569 54.3603 37.7823 54.6062C35.7462 55.0351 33.6812 55.3291 31.6065 55.493C31.5439 55.7918 31.4909 56.0954 31.4476 56.3943Z" fill="#004098"/>
<path d="M26.7877 80.082C26.7877 80.082 36.4438 91.9238 35.9 96.2759C35.356 100.628 30.528 115.367 30.528 115.367C30.528 115.367 38.9133 97.1192 38.6148 94.2806C38.3164 91.4418 26.7877 80.082 26.7877 80.082Z" fill="#004098"/>
<path d="M38.3888 78.5352C38.3888 78.5352 42.2059 80.1642 42.1675 81.4896C42.129 82.8149 41.2913 90.8107 40.1506 92.377C40.1506 92.377 44.9978 85.5188 45.46 79.7305C45.46 79.7305 44.6513 80.1112 38.3888 78.5352Z" fill="#004098"/>
<path d="M51.1831 68.2597C51.1157 67.5609 51.1061 66.8331 51.3612 66.1777C51.6116 65.5223 52.5165 65.1655 52.9305 64.9776C50.49 65.4066 49.4406 65.1125 48.5068 64.4667C48.1843 64.245 47.7703 64.1583 47.4862 63.8884C46.8846 63.3053 46.7835 62.3943 46.4995 61.6087C46.4514 61.4738 46.3839 61.3244 46.2492 61.2665C46.1433 61.2231 46.0229 61.2425 45.9123 61.2665C44.42 61.6425 43.3129 62.8522 42.1624 63.8739C38.4223 67.1995 33.3198 68.9393 28.3329 68.5923C27.4424 68.5297 26.4556 68.3465 25.9357 67.6236C25.7094 67.3055 25.5795 66.8959 25.0837 66.8331C24.7467 66.7898 24.4147 66.944 24.1884 67.1995C23.7985 67.6428 23.7407 68.2597 23.6974 68.8333C23.7166 68.5634 23.3267 67.9658 23.2449 67.6766C23.1149 67.2187 23.0379 66.7464 22.9849 66.2693C22.9031 65.4885 22.9031 64.6788 22.9608 63.9077C22.6192 64.9295 22.3062 65.9609 21.9789 66.9825C21.8249 67.4694 21.6661 67.9706 21.6901 68.4814C21.7142 69.002 21.9163 69.4984 22.1233 69.9756C23.2642 72.6359 24.5157 75.253 25.8635 77.8122C25.5362 75.0458 25.2762 71.995 26.8792 69.7201C29.1994 70.7949 31.948 70.8913 34.3355 69.99C34.9083 72.5251 34.4654 75.2771 33.1225 77.4989C36.0877 75.3928 38.2441 72.1733 39.0577 68.6308C40.184 68.2839 41.3152 67.9513 42.4464 67.6381C42.8267 67.532 43.2118 67.4308 43.6065 67.4645C44.1119 67.5128 44.5644 67.7922 44.9928 68.0669C45.8641 68.6212 46.7402 69.1755 47.5152 69.855C48.6608 70.8623 49.5657 72.1203 50.3841 73.4119C50.3841 73.4119 50.3889 73.4119 50.3937 73.4071H50.3841C50.3841 73.4071 57.8259 84.8777 58.0811 96.3771C58.0811 96.3771 62.6877 103.264 61.7153 108.205C61.7153 108.205 64.5072 102.031 69.0465 100.213C69.0465 100.213 70.9912 95.3411 61.9704 87.4129C53.797 80.2316 51.3371 69.3008 51.1591 68.1682" fill="#004098"/>
<path d="M27.5724 118.172C29.7434 123.03 32.9204 127.56 37.4211 130.361C37.7388 130.558 38.0614 130.746 38.355 130.978C35.9 130.703 33.3536 130.394 31.2741 129.059C30.3355 128.457 30.2488 129.686 29.3872 128.987C25.9744 123.994 24.3618 115.352 26.0273 109.54C25.9454 111.034 25.8636 112.547 26.1332 114.022C26.3354 115.135 26.7349 116.2 27.1681 117.246C27.2981 117.555 27.4328 117.868 27.5677 118.177L27.5724 118.172Z" fill="#004098"/>
<path d="M38.538 112.99C37.5994 118.991 38.3503 125.252 40.6945 130.851C40.8726 131.276 41.3348 131.372 41.768 131.512C42.0279 131.594 42.3022 131.632 42.5767 131.661C43.4576 131.758 44.3432 131.772 45.229 131.705C44.2566 130.028 43.3083 128.336 42.4226 126.606C40.0784 122.018 38.1818 116.938 38.745 111.814C38.668 112.205 38.6006 112.595 38.538 112.99Z" fill="#004098"/>
<path d="M61.0076 112.012C60.2038 114.605 58.673 116.827 57.0123 118.971C55.5393 120.875 54.0134 122.731 52.4297 124.538C50.9327 126.249 49.3731 127.931 47.5343 129.261C53.5128 122.866 57.6478 114.759 59.318 106.156C59.7416 107.906 59.9824 109.742 60.016 111.54C60.0256 111.978 60.016 112.422 59.9005 112.846C60.4156 112.301 60.8296 111.656 61.1039 110.957C61.1569 111.227 61.0943 111.748 61.0124 112.012H61.0076Z" fill="#004098"/>
<path d="M40.8052 48.9814C42.6872 49.1887 44.4972 49.8345 46.1916 50.6779C47.886 51.5214 49.4696 52.5673 51.0437 53.6179C47.2025 51.8973 43.2504 50.4128 38.7594 50.6635C38.1239 50.6973 37.4885 50.5189 36.8676 50.3647C38.1384 49.8056 39.4381 49.2369 40.8052 48.9814Z" fill="#004098"/>
<path d="M49.2337 48.9331C50.3889 49.1788 51.472 49.6946 52.4684 50.3211C53.4648 50.9477 54.3843 51.6995 55.2988 52.4466C53.022 51.1405 50.6633 49.9693 47.857 49.8488C47.4574 49.8295 47.0771 49.6801 46.7017 49.5452C47.5248 49.2752 48.3672 49.0054 49.2337 48.9331Z" fill="#004098"/>
<path d="M79.3236 50.1382C78.9626 50.6491 78.6016 51.1552 78.2406 51.666C77.7111 52.413 77.1816 53.1601 76.551 53.8252C75.6749 54.7554 74.6111 55.5072 73.4462 56.0277C72.8589 56.2928 72.2379 56.5001 71.7084 56.8663C71.1789 57.2327 70.741 57.8158 70.7457 58.4616C70.7457 58.9436 70.9961 59.4014 71.0153 59.8834C70.6061 59.1846 69.836 58.4086 68.5219 58.0279C67.3762 57.7001 66.2642 57.276 65.1138 56.9675C63.6986 56.5916 61.8695 56.4856 60.435 56.1916C59.1882 55.9362 57.9319 55.7386 56.6707 55.6036C59.7033 56.0663 62.7504 55.9458 65.7829 55.4783C66.9911 55.2903 68.1946 55.0301 69.3498 54.6108C70.5099 54.1915 71.6122 53.6131 72.7048 53.0444C74.8229 51.9359 77.2105 51.2467 79.3284 50.1382H79.3236Z" fill="#004098"/>
<path d="M53.6572 49.4632C53.6572 49.4632 57.3347 50.3934 57.8739 51.0826C57.8739 51.0826 74.5435 42.8652 80.0791 41.7567C80.3246 41.7085 84.5414 40.9711 88.2142 43.3279C91.8918 45.6846 98.751 50.3934 98.751 50.3934C98.751 50.3934 103.016 52.649 100.417 58.2927C100.417 58.2927 103.112 53.0923 103.652 52.649C103.652 52.649 102.669 51.2995 102.082 50.1332C101.495 48.9668 94.6309 47.9354 85.6147 40.0361C85.6147 40.0361 84.0455 39.106 78.2644 41.0193C72.4784 42.9326 60.2278 50.6874 53.662 49.4584L53.6572 49.4632Z" fill="#004098"/>
<path d="M57.3539 70.0863C56.9832 69.8598 56.6078 69.6477 56.2275 69.4453C56.5981 69.6671 56.9785 69.8792 57.3539 70.0863Z" fill="#004098"/>
<path d="M95.0782 74.5009C96.5182 73.5032 98.0488 72.4044 99.5989 71.2332C99.5989 71.2332 99.1843 82.2557 94.6449 87.6632C90.1061 93.0756 78.2983 104.83 78.2983 104.83C78.2983 104.83 95.7142 89.0031 98.7174 87.6969C98.7174 87.6969 101.827 70.9682 103.777 67.4595C98.5157 71.1657 90.8185 76.0239 84.5753 76.1974C75.2224 76.4576 65.5518 74.5973 57.3543 70.0813C61.3977 72.5346 64.6324 76.3082 66.4279 80.6893C71.694 79.6386 77.2008 80.2796 82.5584 80.6362C83.2082 80.6796 84.3106 80.8242 84.5657 80.7519C84.9218 80.6459 86.1975 80.0097 87.0013 79.5903C88.5562 78.7807 91.5598 76.9348 95.0782 74.4961V74.5009Z" fill="#004098"/>
<path d="M54.5286 37.5494C54.5286 37.5494 52.4828 38.0169 51.1928 38.4266C51.1928 38.4266 32.4774 31.5153 16.3325 33.2745C16.1592 33.2938 45.4886 35.5445 53.3637 46.0078C55.4672 45.3476 57.6671 44.4704 59.8572 43.5161C58.9908 42.0654 56.6274 38.3929 54.5286 37.5494Z" fill="#004098"/>
<path d="M52.9595 22.5269C52.9595 22.5269 43.4141 20.2424 38.822 18.2183C38.822 18.2183 58.4711 27.9056 65.345 41.7667C66.5628 41.198 67.7566 40.6245 68.9022 40.0799C67.463 37.3713 61.6288 27.1874 52.9547 22.5269H52.9595Z" fill="#004098"/>
<path d="M95.1557 34.4601C97.6005 37.5688 99.1796 41.3425 99.6998 45.2608C103.377 47.0441 105.741 47.7188 106.101 48.4369C106.203 48.6394 106.318 48.8466 106.434 49.0538C107.497 44.1379 108.007 38.9424 107.31 34.0553C107.098 32.5708 106.809 31.096 106.376 29.6647C106.376 29.6647 104.142 23.5438 102.708 21.4376C102.708 21.4376 105.269 34.1614 103.84 38.3544C103.771 38.5519 103.742 37.9446 103.69 37.7422C101.047 27.597 91.136 17.9964 84.7387 12.666C81.4799 9.94765 79.1308 8.34277 79.1308 8.34277C81.4606 10.1357 83.1839 12.6177 84.575 15.2059C88.2623 22.0594 89.2731 30.349 88.5366 38.1278C91.8292 40.7883 94.8326 42.6824 97.3941 44.0704C96.6573 40.9184 96.648 37.2892 95.1557 34.4553V34.4601Z" fill="#004098"/>
<path d="M94.0239 102.354C94.0239 102.354 106.241 98.7921 112.171 98.6715C112.171 98.6715 117.866 92.141 118.223 90.1217C118.223 90.1217 122.256 95.4663 121.424 96.2377C120.591 97.0091 116.561 98.4349 116.561 98.4349C116.561 98.4349 124.63 96.6519 127.474 96.7725C127.474 96.7725 133.712 76.0869 119.262 75.1375C118.915 75.1134 118.588 75.3062 118.429 75.6147L115.137 82.1645L115.2 80.0873C115.315 76.434 114.742 72.7952 113.514 69.354L111.324 63.2139C111.324 63.2139 110.982 87.9769 94.0192 102.349L94.0239 102.354Z" fill="#004098"/>
<path d="M112.817 58.929C112.817 58.929 116.624 63.4064 118.348 65.7969C119.016 66.7319 119.936 67.4452 120.99 67.8453C123.565 68.8236 127.99 70.5009 128.143 70.4623C131.229 69.7249 138.324 67.8549 138.396 65.927C138.497 63.286 133.207 55.536 133.207 55.536L122.613 52.8467C122.613 52.8467 113.149 54.201 113.197 54.066C113.245 53.9311 128.524 54.6589 131.132 57.9795L133.472 62.4906L127.801 64.5149L120.225 63.363L112.821 58.9194L112.817 58.929Z" fill="#004098"/>
<path d="M82.7461 27.7802C76.7098 22.763 66.0814 12.2707 63.4917 12.0394C62.4326 11.943 61.5758 12.9936 61.2292 14.001C60.5938 15.8469 60.4639 17.8614 61.2726 19.635C62.009 21.2592 62.9428 22.7822 63.7756 24.3583C65.9418 28.4453 68.8588 32.6239 71.0442 36.7012C71.2271 37.0434 71.4197 37.3904 71.7084 37.6458C72.0214 37.9254 72.4257 38.0796 72.8156 38.2194C73.6194 38.5086 73.7735 38.5808 74.4811 38.7929C75.2657 38.4652 75.9974 38.1808 76.6521 37.9639C80.2863 36.7591 82.5199 36.5036 83.8195 36.5277C84.1131 36.0795 84.2913 35.4964 84.5031 35.0095C85.6054 32.4889 84.8545 29.5345 82.7365 27.7753L82.7461 27.7802ZM80.012 32.3877C79.9061 32.6335 79.8146 32.9275 79.6654 33.154C79.1744 33.1444 78.4138 33.2167 77.2922 33.5058C76.9168 33.6022 76.5029 33.7275 76.0456 33.8769C75.7134 33.9878 75.3475 34.1275 74.948 34.2962C74.5919 34.1902 74.5148 34.1517 74.1056 34.0071C73.9083 33.9347 73.7061 33.8577 73.5473 33.7179C73.4029 33.5878 73.3018 33.4142 73.2103 33.2408C72.108 31.1828 70.635 29.0718 69.5423 27.009C69.1187 26.2138 68.6518 25.4427 68.2764 24.6233C67.8672 23.7269 67.9346 22.71 68.2571 21.7797C68.4304 21.2689 68.8636 20.7436 69.3979 20.7917C70.7073 20.9075 76.0696 26.2042 79.1166 28.7392C80.1853 29.6261 80.5656 31.1201 80.0071 32.3925L80.012 32.3877Z" fill="#004098"/>
<path d="M163.099 81.6198V55.8398H169.424V65.7489H180.02V55.8398H186.344V81.6198H180.02V71.5276H169.424V81.6198H163.099Z" fill="#004098"/>
<path d="M188.222 81.6198L198.779 55.8398H206.023L216.435 81.6198H209.594L207.241 75.3928H197.199L194.807 81.6198H188.222ZM199.11 70.3516H205.363L202.273 62.1005L199.11 70.3516Z" fill="#004098"/>
<path d="M218.312 81.6198V55.8398H224.272L235.968 70.795V55.8398H241.928V81.6198H236.334L224.266 66.0766V81.6198H218.307H218.312Z" fill="#004098"/>
<path d="M255.685 81.9905C253.601 81.9905 251.54 81.6097 249.504 80.8482C247.468 80.0867 245.653 79.0312 244.06 77.6817L247.593 73.0791C249.162 74.3562 250.611 75.2719 251.935 75.8214C253.259 76.3756 254.669 76.6503 256.166 76.6503C257.148 76.6503 257.98 76.554 258.669 76.3564C259.358 76.1588 259.882 75.8696 260.252 75.4889C260.619 75.1081 260.806 74.6599 260.806 74.1441C260.806 73.4308 260.536 72.8814 259.998 72.4862C259.459 72.0958 258.539 71.7874 257.24 71.5657L251.573 70.5728C249.49 70.2066 247.882 69.4065 246.756 68.1775C245.629 66.9486 245.065 65.3918 245.065 63.4977C245.065 61.8301 245.489 60.3938 246.336 59.189C247.183 57.9841 248.396 57.0636 249.98 56.4274C251.564 55.7912 253.447 55.4683 255.627 55.4683C257.538 55.4683 259.463 55.796 261.403 56.4418C263.338 57.0924 265.018 57.9937 266.443 59.1505L263.098 63.8302C260.45 61.7916 257.812 60.7747 255.189 60.7747C254.332 60.7747 253.59 60.8662 252.965 61.0494C252.339 61.2325 251.863 61.4927 251.53 61.8205C251.198 62.153 251.035 62.553 251.035 63.0158C251.035 63.6567 251.275 64.1436 251.752 64.4905C252.229 64.8328 253.009 65.1026 254.086 65.3003L259.42 66.1822C261.894 66.5775 263.781 67.3967 265.066 68.6498C266.351 69.903 266.997 71.5223 266.997 73.5128C266.997 75.2575 266.544 76.7612 265.634 78.0239C264.729 79.2866 263.429 80.265 261.735 80.9542C260.046 81.6435 258.034 81.9856 255.704 81.9856L255.685 81.9905Z" fill="#004098"/>
<path d="M281.212 81.991C278.833 81.991 276.764 81.5186 275.011 80.574C273.259 79.6293 271.902 78.2846 270.949 76.54C269.991 74.7953 269.514 72.747 269.514 70.3901V55.8398H275.839V70.3901C275.839 71.5469 276.061 72.559 276.503 73.4265C276.947 74.2989 277.577 74.9687 278.4 75.4362C279.223 75.9037 280.171 76.1351 281.25 76.1351C282.329 76.1351 283.305 75.9037 284.099 75.4362C284.898 74.9687 285.515 74.2989 285.957 73.4265C286.4 72.5542 286.621 71.542 286.621 70.3901V55.8398H292.947V70.3901C292.947 72.7229 292.461 74.7615 291.493 76.5062C290.526 78.251 289.163 79.6003 287.411 80.5595C285.66 81.5186 283.589 81.9957 281.212 81.9957V81.991Z" fill="#004098"/>
<path d="M296.846 81.6198V55.8398H302.806L314.502 70.795V55.8398H320.462V81.6198H314.868L302.801 66.0766V81.6198H296.841H296.846Z" fill="#004098"/>
<path d="M337.603 82.0248C335.668 82.0248 333.863 81.6874 332.198 81.0128C330.532 80.338 329.064 79.3933 327.803 78.1788C326.541 76.9643 325.56 75.5522 324.861 73.9424C324.164 72.3327 323.812 70.5976 323.812 68.7324C323.812 66.8672 324.164 65.1274 324.861 63.5225C325.56 61.9127 326.527 60.5005 327.769 59.286C329.006 58.0715 330.46 57.1269 332.13 56.4521C333.795 55.7774 335.586 55.4399 337.502 55.4399C339.682 55.4399 341.742 55.8882 343.683 56.7847C345.618 57.6811 347.202 58.9149 348.429 60.4861L343.976 64.5008C343.143 63.4212 342.181 62.6115 341.088 62.0717C339.995 61.5319 338.802 61.2621 337.502 61.2621C336.472 61.2621 335.524 61.4548 334.653 61.8308C333.781 62.2115 333.02 62.732 332.37 63.3972C331.721 64.0622 331.215 64.8478 330.864 65.7539C330.508 66.6648 330.33 67.6577 330.33 68.7372C330.33 69.8168 330.513 70.8193 330.884 71.7398C331.249 72.6604 331.774 73.4604 332.448 74.1352C333.122 74.8099 333.906 75.3401 334.801 75.7208C335.697 76.1016 336.669 76.2895 337.729 76.2895C338.788 76.2895 339.649 76.116 340.468 75.7738C341.29 75.4316 341.994 74.9497 342.58 74.3376C343.167 73.7255 343.587 73.0219 343.832 72.2363H336.881V66.7467H350.676V68.5878C350.676 70.5253 350.35 72.3133 349.7 73.9472C349.05 75.5811 348.14 77.0028 346.98 78.2174C345.815 79.4319 344.434 80.3717 342.841 81.0368C341.247 81.7019 339.505 82.0297 337.618 82.0297L337.603 82.0248Z" fill="#004098"/>
<path d="M163.099 125.82V100.04H169.425V120.225H182.999V125.825H163.099V125.82Z" fill="#004098"/>
<path d="M186.528 125.82V100.04H192.852V125.82H186.528Z" fill="#004098"/>
<path d="M197.122 125.82V100.04H203.448V111.309L213.859 100.04H221.513L209.594 112.157L222.177 125.82H213.792L203.457 113.998V125.82H197.132H197.122Z" fill="#004098"/>
<path d="M222.837 125.82V100.04H243.141V105.529H229.162V110.171H238.394V115.472H229.162V120.335H243.29V125.825H222.837V125.82Z" fill="#004098"/>
<path d="M247.006 125.82V100.04H253.331V120.225H266.905V125.825H247.006V125.82Z" fill="#004098"/>
<path d="M270.439 125.82V100.04H276.764V125.82H270.439Z" fill="#004098"/>
<path d="M293.867 126.225C291.931 126.225 290.126 125.887 288.461 125.212C286.795 124.538 285.332 123.593 284.085 122.378C282.834 121.165 281.862 119.752 281.158 118.143C280.461 116.533 280.11 114.797 280.11 112.932C280.11 111.068 280.461 109.328 281.158 107.722C281.857 106.113 282.834 104.7 284.085 103.486C285.337 102.271 286.795 101.327 288.461 100.652C290.126 99.9777 291.931 99.6401 293.867 99.6401C295.802 99.6401 297.607 99.9777 299.272 100.652C300.938 101.327 302.401 102.271 303.648 103.486C304.895 104.7 305.872 106.113 306.575 107.722C307.272 109.332 307.624 111.068 307.624 112.932C307.624 114.797 307.272 116.537 306.575 118.143C305.876 119.752 304.9 121.165 303.648 122.378C302.397 123.593 300.938 124.538 299.272 125.212C297.602 125.887 295.802 126.225 293.867 126.225ZM293.867 120.403C294.897 120.403 295.854 120.215 296.736 119.834C297.616 119.454 298.387 118.933 299.037 118.268C299.687 117.602 300.197 116.812 300.563 115.891C300.928 114.971 301.116 113.983 301.116 112.927C301.116 111.872 300.933 110.855 300.563 109.945C300.197 109.038 299.687 108.248 299.037 107.588C298.387 106.923 297.621 106.402 296.736 106.022C295.854 105.64 294.897 105.452 293.867 105.452C292.836 105.452 291.879 105.64 290.997 106.022C290.117 106.402 289.346 106.923 288.696 107.588C288.047 108.252 287.537 109.038 287.171 109.945C286.805 110.851 286.618 111.848 286.618 112.927C286.618 114.007 286.801 114.971 287.171 115.891C287.537 116.812 288.047 117.602 288.696 118.268C289.346 118.933 290.112 119.454 290.997 119.834C291.879 120.215 292.836 120.403 293.867 120.403Z" fill="#004098"/>
<path d="M310.974 125.82V100.04H316.934L328.63 114.995V100.04H334.59V125.82H328.996L316.928 110.277V125.82H310.969H310.974Z" fill="#004098"/>
</g>
</svg>
